<svg id="visual" viewBox="0 0 900 600" width="900" height="600" xmlns="http://www.w3.org/2000/svg" xmlns:xlink="http://www.w3.org/1999/xlink" version="1.1"><rect x="0" y="0" width="900" height="600" fill="#2C2A4A"></rect><defs><linearGradient id="grad1_0" x1="33.3%" y1="0%" x2="100%" y2="100%"><stop offset="20%" stop-color="#907ad6" stop-opacity="1"></stop><stop offset="80%" stop-color="#907ad6" stop-opacity="1"></stop></linearGradient></defs><defs><linearGradient id="grad1_1" x1="33.3%" y1="0%" x2="100%" y2="100%"><stop offset="20%" stop-color="#907ad6" stop-opacity="1"></stop><stop offset="80%" stop-color="#5a518d" stop-opacity="1"></stop></linearGradient></defs><defs><linearGradient id="grad1_2" x1="33.3%" y1="0%" x2="100%" y2="100%"><stop offset="20%" stop-color="#2c2a4a" stop-opacity="1"></stop><stop offset="80%" stop-color="#5a518d" stop-opacity="1"></stop></linearGradient></defs><defs><linearGradient id="grad2_0" x1="0%" y1="0%" x2="66.7%" y2="100%"><stop offset="20%" stop-color="#907ad6" stop-opacity="1"></stop><stop offset="80%" stop-color="#907ad6" stop-opacity="1"></stop></linearGradient></defs><defs><linearGradient id="grad2_1" x1="0%" y1="0%" x2="66.7%" y2="100%"><stop offset="20%" stop-color="#5a518d" stop-opacity="1"></stop><stop offset="80%" stop-color="#907ad6" stop-opacity="1"></stop></linearGradient></defs><defs><linearGradient id="grad2_2" x1="0%" y1="0%" x2="66.7%" y2="100%"><stop offset="20%" stop-color="#5a518d" stop-opacity="1"></stop><stop offset="80%" stop-color="#2c2a4a" stop-opacity="1"></stop></linearGradient></defs><g transform="translate(900, 0)"><path d="M0 459.7C-49.2 456.9 -98.4 454 -142.1 437.2C-185.7 420.4 -223.8 389.7 -261.6 360C-299.3 330.3 -336.7 301.7 -364.9 265.1C-393 228.5 -411.8 183.9 -426.1 138.4C-440.3 92.9 -450 46.5 -459.7 0L0 0Z" fill="#423d6b"></path><path d="M0 306.5C-32.8 304.6 -65.6 302.7 -94.7 291.5C-123.8 280.3 -149.2 259.8 -174.4 240C-199.5 220.2 -224.5 201.1 -243.2 176.7C-262 152.3 -274.5 122.6 -284 92.3C-293.6 62 -300 31 -306.5 0L0 0Z" fill="#7465b1"></path><path d="M0 153.2C-16.4 152.3 -32.8 151.3 -47.4 145.7C-61.9 140.1 -74.6 129.9 -87.2 120C-99.8 110.1 -112.2 100.6 -121.6 88.4C-131 76.2 -137.3 61.3 -142 46.1C-146.8 31 -150 15.5 -153.2 0L0 0Z" fill="#907ad6"></path></g><g transform="translate(0, 600)"><path d="M0 -459.7C48.3 -455.9 96.7 -452 142.1 -437.2C187.5 -422.4 229.9 -396.5 265.1 -364.9C300.3 -333.2 328.2 -295.7 354.3 -257.4C380.5 -219.2 405 -180.2 422.3 -137.2C439.5 -94.2 449.6 -47.1 459.7 0L0 0Z" fill="#423d6b"></path><path d="M0 -306.5C32.2 -303.9 64.4 -301.4 94.7 -291.5C125 -281.6 153.3 -264.4 176.7 -243.2C200.2 -222.1 218.8 -197.1 236.2 -171.6C253.7 -146.1 270 -120.2 281.5 -91.5C293 -62.8 299.8 -31.4 306.5 0L0 0Z" fill="#7465b1"></path><path d="M0 -153.2C16.1 -152 32.2 -150.7 47.4 -145.7C62.5 -140.8 76.6 -132.2 88.4 -121.6C100.1 -111.1 109.4 -98.6 118.1 -85.8C126.8 -73.1 135 -60.1 140.8 -45.7C146.5 -31.4 149.9 -15.7 153.2 0L0 0Z" fill="#907ad6"></path></g></svg>