<svg id="visual" viewBox="0 0 900 600" width="900" height="600" xmlns="http://www.w3.org/2000/svg" xmlns:xlink="http://www.w3.org/1999/xlink" version="1.1"><rect x="0" y="0" width="900" height="600" fill="#2C2A4A"></rect><path d="M0 372L21.5 365.8C43 359.7 86 347.3 128.8 356.5C171.7 365.7 214.3 396.3 257.2 407.7C300 419 343 411 385.8 401.2C428.7 391.3 471.3 379.7 514.2 379.2C557 378.7 600 389.3 642.8 387.3C685.7 385.3 728.3 370.7 771.2 368.5C814 366.3 857 376.7 878.5 381.8L900 387L900 601L878.5 601C857 601 814 601 771.2 601C728.3 601 685.7 601 642.8 601C600 601 557 601 514.2 601C471.3 601 428.7 601 385.8 601C343 601 300 601 257.2 601C214.3 601 171.7 601 128.8 601C86 601 43 601 21.5 601L0 601Z" fill="#dabfff"></path><path d="M0 470L21.5 459.3C43 448.7 86 427.3 128.8 411.7C171.7 396 214.3 386 257.2 387.3C300 388.7 343 401.3 385.8 417.5C428.7 433.7 471.3 453.3 514.2 448.5C557 443.7 600 414.3 642.8 410.8C685.7 407.3 728.3 429.7 771.2 431.5C814 433.3 857 414.7 878.5 405.3L900 396L900 601L878.5 601C857 601 814 601 771.2 601C728.3 601 685.7 601 642.8 601C600 601 557 601 514.2 601C471.3 601 428.7 601 385.8 601C343 601 300 601 257.2 601C214.3 601 171.7 601 128.8 601C86 601 43 601 21.5 601L0 601Z" fill="#aa99d7"></path><path d="M0 478L21.5 476.7C43 475.3 86 472.7 128.8 478.7C171.7 484.7 214.3 499.3 257.2 503.5C300 507.7 343 501.3 385.8 492C428.7 482.7 471.3 470.3 514.2 466.7C557 463 600 468 642.8 469.5C685.7 471 728.3 469 771.2 468.8C814 468.7 857 470.3 878.5 471.2L900 472L900 601L878.5 601C857 601 814 601 771.2 601C728.3 601 685.7 601 642.8 601C600 601 557 601 514.2 601C471.3 601 428.7 601 385.8 601C343 601 300 601 257.2 601C214.3 601 171.7 601 128.8 601C86 601 43 601 21.5 601L0 601Z" fill="#7c74b1"></path><path d="M0 515L21.5 517.3C43 519.7 86 524.3 128.8 527.7C171.7 531 214.3 533 257.2 533.3C300 533.7 343 532.3 385.8 534.7C428.7 537 471.3 543 514.2 544.8C557 546.7 600 544.3 642.8 538.8C685.7 533.3 728.3 524.7 771.2 519.8C814 515 857 514 878.5 513.5L900 513L900 601L878.5 601C857 601 814 601 771.2 601C728.3 601 685.7 601 642.8 601C600 601 557 601 514.2 601C471.3 601 428.7 601 385.8 601C343 601 300 601 257.2 601C214.3 601 171.7 601 128.8 601C86 601 43 601 21.5 601L0 601Z" fill="#4f518c"></path></svg>