<svg id="visual" viewBox="0 0 900 600" width="900" height="600" xmlns="http://www.w3.org/2000/svg" xmlns:xlink="http://www.w3.org/1999/xlink" version="1.1"><rect x="0" y="0" width="900" height="600" fill="#a3dbfb"></rect><defs><linearGradient id="grad1_0" x1="33.3%" y1="0%" x2="100%" y2="100%"><stop offset="20%" stop-color="#544cbc" stop-opacity="1"></stop><stop offset="80%" stop-color="#544cbc" stop-opacity="1"></stop></linearGradient></defs><defs><linearGradient id="grad1_1" x1="33.3%" y1="0%" x2="100%" y2="100%"><stop offset="20%" stop-color="#544cbc" stop-opacity="1"></stop><stop offset="80%" stop-color="#4a81dc" stop-opacity="1"></stop></linearGradient></defs><defs><linearGradient id="grad1_2" x1="33.3%" y1="0%" x2="100%" y2="100%"><stop offset="20%" stop-color="#68b0ee" stop-opacity="1"></stop><stop offset="80%" stop-color="#4a81dc" stop-opacity="1"></stop></linearGradient></defs><defs><linearGradient id="grad1_3" x1="33.3%" y1="0%" x2="100%" y2="100%"><stop offset="20%" stop-color="#68b0ee" stop-opacity="1"></stop><stop offset="80%" stop-color="#a3dbfb" stop-opacity="1"></stop></linearGradient></defs><defs><linearGradient id="grad2_0" x1="0%" y1="0%" x2="66.7%" y2="100%"><stop offset="20%" stop-color="#544cbc" stop-opacity="1"></stop><stop offset="80%" stop-color="#544cbc" stop-opacity="1"></stop></linearGradient></defs><defs><linearGradient id="grad2_1" x1="0%" y1="0%" x2="66.7%" y2="100%"><stop offset="20%" stop-color="#4a81dc" stop-opacity="1"></stop><stop offset="80%" stop-color="#544cbc" stop-opacity="1"></stop></linearGradient></defs><defs><linearGradient id="grad2_2" x1="0%" y1="0%" x2="66.7%" y2="100%"><stop offset="20%" stop-color="#4a81dc" stop-opacity="1"></stop><stop offset="80%" stop-color="#68b0ee" stop-opacity="1"></stop></linearGradient></defs><defs><linearGradient id="grad2_3" x1="0%" y1="0%" x2="66.7%" y2="100%"><stop offset="20%" stop-color="#a3dbfb" stop-opacity="1"></stop><stop offset="80%" stop-color="#68b0ee" stop-opacity="1"></stop></linearGradient></defs><g transform="translate(900, 0)"><path d="M0 459.7C-44.4 444.2 -88.9 428.6 -135.3 416.6C-181.8 404.5 -230.3 395.9 -270.2 371.9C-310.1 347.9 -341.4 308.5 -368.9 268C-396.4 227.6 -420.1 186.1 -434.6 141.2C-449.1 96.4 -454.4 48.2 -459.7 0L0 0Z" fill="#83c6f5"></path><path d="M0 344.8C-33.3 333.1 -66.7 321.5 -101.5 312.4C-136.4 303.4 -172.7 296.9 -202.7 278.9C-232.6 260.9 -256.1 231.4 -276.7 201C-297.3 170.7 -315.1 139.5 -326 105.9C-336.9 72.3 -340.8 36.1 -344.8 0L0 0Z" fill="#5499e6"></path><path d="M0 229.9C-22.2 222.1 -44.4 214.3 -67.7 208.3C-90.9 202.2 -115.2 198 -135.1 186C-155.1 174 -170.7 154.2 -184.5 134C-198.2 113.8 -210.1 93 -217.3 70.6C-224.6 48.2 -227.2 24.1 -229.9 0L0 0Z" fill="#4c67ce"></path><path d="M0 114.9C-11.1 111 -22.2 107.2 -33.8 104.1C-45.5 101.1 -57.6 99 -67.6 93C-77.5 87 -85.4 77.1 -92.2 67C-99.1 56.9 -105 46.5 -108.7 35.3C-112.3 24.1 -113.6 12 -114.9 0L0 0Z" fill="#544cbc"></path></g><g transform="translate(0, 600)"><path d="M0 -459.7C44.5 -444.6 89 -429.4 135.7 -417.5C182.4 -405.6 231.3 -397 270.2 -371.9C309.1 -346.9 338 -305.4 364.1 -264.5C390.1 -223.6 413.4 -183.4 428.9 -139.4C444.4 -95.4 452.1 -47.7 459.7 0L0 0Z" fill="#83c6f5"></path><path d="M0 -344.8C33.4 -333.4 66.7 -322.1 101.7 -313.1C136.8 -304.2 173.5 -297.7 202.7 -278.9C231.8 -260.1 253.5 -229 273 -198.4C292.6 -167.7 310.1 -137.5 321.7 -104.5C333.3 -71.5 339 -35.8 344.8 0L0 0Z" fill="#5499e6"></path><path d="M0 -229.9C22.2 -222.3 44.5 -214.7 67.8 -208.8C91.2 -202.8 115.7 -198.5 135.1 -186C154.6 -173.4 169 -152.7 182 -132.3C195.1 -111.8 206.7 -91.7 214.5 -69.7C222.2 -47.7 226 -23.8 229.9 0L0 0Z" fill="#4c67ce"></path><path d="M0 -114.9C11.1 -111.1 22.2 -107.4 33.9 -104.4C45.6 -101.4 57.8 -99.2 67.6 -93C77.3 -86.7 84.5 -76.3 91 -66.1C97.5 -55.9 103.4 -45.8 107.2 -34.8C111.1 -23.8 113 -11.9 114.9 0L0 0Z" fill="#544cbc"></path></g></svg>